#!OML:ASF E:\Steps\Project 1\Capture day 1\Session 2\Subject.ASF
:FULLY-SPECIFIED
:DEGREES
738
root 10.0265 20.5217 -8.66484 -157.746 1.00957 176.352
lowerback -20.5515 -0.213402 -4.8761
upperback 2.05575 0.887254 0.853341
thorax 13.8765 0.00325579 4.04805
lowerneck -2.33915 -0.512143 -1.62233
upperneck 22.693 -2.6612 0.734406
head 7.35464 -2.04711 0.240239
rclavicle -5.96354e-015 1.35174e-014
rhumerus -32.3037 -12.227 -80.0683
rradius 35.9974
rwrist -3.45692
rhand -8.05641 -53.2344
rfingers 7.12502
rthumb 17.8546 -82.4348
lclavicle -5.96354e-015 1.35174e-014
lhumerus -34.6892 3.43718 81.3554
lradius 22.9608
lwrist -5.53957
lhand -18.6448 -13.8222
lfingers 7.12502
lthumb 7.64804 16.0195
rfemur -21.2844 3.75077 20.565
rtibia 14.5484
rfoot -23.8324 -5.90808
rtoes -33.5985
lfemur -70.7013 -4.15796 -19.6604
ltibia 59.924
lfoot -5.79219 -0.603779
ltoes -36.3057
739
root 10.0162 20.5158 -8.7184 -157.548 1.086 176.399
lowerback -20.801 -0.244098 -4.89426
upperback 2.02236 0.872343 0.817912
thorax 13.9857 -0.00482929 4.0192
lowerneck -1.91183 -0.537828 -1.79649
upperneck 22.2973 -2.71448 0.996685
head 7.15503 -2.06047 0.360989
rclavicle -8.74653e-015 -1.19271e-014
rhumerus -32.4677 -12.3869 -80.0433
rradius 36.1274
rwrist -3.19492
rhand -8.15018 -53.1695
rfingers 7.12502
rthumb 17.7643 -82.3781
lclavicle -8.74653e-015 -1.19271e-014
lhumerus -34.6538 3.27616 81.3666
lradius 22.9083
lwrist -5.53541
lhand -18.9676 -14.0311
lfingers 7.12502
lthumb 7.33638 15.8217
rfemur -21.2215 3.74485 20.5597
rtibia 14.4018
rfoot -23.995 -6.1907
rtoes -34.5985
lfemur -70.4339 -4.18721 -19.647
ltibia 59.745
lfoot -7.2362 -0.571651
ltoes -35.3384
740
root 10.0094 20.5107 -8.77031 -157.384 1.09971 176.445
lowerback -20.9035 -0.271859 -5.0062
upperback 1.92989 0.875717 0.799574
thorax 13.936 -0.00523005 4.06505
lowerneck -1.26054 -0.54097 -1.77694
upperneck 21.9476 -2.74941 1.06723
head 6.92754 -2.07756 0.389033
rclavicle -2.18663e-015 0
rhumerus -32.6042 -12.5412 -79.9872
rradius 35.9343
rwrist -3.08598
rhand -8.12569 -53.3006
rfingers 7.12502
rthumb 17.7879 -82.5071
lclavicle -2.18663e-015 0
lhumerus -34.6858 2.86094 81.4599
lradius 22.8646
lwrist -5.20983
lhand -19.0428 -14.1709
lfingers 7.12502
lthumb 7.26388 15.6845
rfemur -21.2072 3.99318 20.5437
rtibia 14.4136
rfoot -24.4243 -7.07346
rtoes -36.5436
lfemur -70.1731 -4.24512 -19.6085
ltibia 59.6299
lfoot -8.50953 -0.652561
ltoes -33.8153
741
root 10.003 20.5068 -8.82334 -157.283 1.10331 176.482
lowerback -20.8835 -0.297118 -5.14604
upperback 1.93786 0.879881 0.776529
thorax 13.9326 -0.0131834 4.11997
lowerneck -1.67722 -0.529761 -1.57493
upperneck 22.1456 -2.68389 0.81211
head 7.05871 -2.04336 0.270154
rclavicle -1.39149e-015 5.96354e-015
rhumerus -32.4855 -12.5215 -80.0446
rradius 35.7701
rwrist -3.27325
rhand -7.93335 -53.6461
rfingers 7.12502
rthumb 17.973 -82.8356
lclavicle -1.39149e-015 5.96354e-015
lhumerus -34.5476 2.72842 81.4421
lradius 22.7696
lwrist -5.16515
lhand -18.8325 -14.2492
lfingers 7.12502
lthumb 7.46687 15.599
rfemur -21.2308 4.27527 20.5272
rtibia 14.6548
rfoot -24.8453 -7.60792
rtoes -37.1883
lfemur -69.952 -4.26618 -19.6462
ltibia 59.7118
lfoot -9.25132 -0.664902
ltoes -34.6815
742
root 9.99677 20.5018 -8.8755 -157.207 1.126 176.531
lowerback -20.8338 -0.315807 -5.24075
upperback 1.95994 0.880976 0.738027
thorax 13.9293 -0.018858 4.12974
lowerneck -2.52599 -0.535059 -1.17012
upperneck 22.8919 -2.62438 0.105409
head 7.43981 -2.04966 -0.0439546
rclavicle 0 1.86858e-014
rhumerus -32.3155 -12.5484 -80.1333
rradius 35.6741
rwrist -3.42937
rhand -7.72791 -53.9558
rfingers 7.12502
rthumb 18.1706 -83.127
lclavicle 0 1.86858e-014
lhumerus -34.3459 2.70795 81.3757
lradius 22.6828
lwrist -5.39324
lhand -18.7988 -14.403
lfingers 7.12502
lthumb 7.49933 15.4441
rfemur -21.158 4.40827 20.5396
rtibia 14.7593
rfoot -24.8983 -7.2787
rtoes -35.8719
lfemur -69.8128 -4.21908 -19.7272
ltibia 59.937
lfoot -9.77696 -0.766299
ltoes -34.9022
743
root 9.9886 20.4975 -8.92551 -157.034 1.14872 176.635
lowerback -20.8202 -0.339313 -5.24659
upperback 1.91717 0.856561 0.700543
thorax 13.8742 -0.0246984 4.08163
lowerneck -2.27537 -0.588467 -1.33951
upperneck 22.7416 -2.7313 0.307471
head 7.35134 -2.09983 0.0479658
rclavicle 5.76476e-015 1.82882e-014
rhumerus -32.338 -12.529 -80.2688
rradius 35.7254
rwrist -3.72168
rhand -8.67988 -53.2394
rfingers 7.12502
rthumb 17.2546 -82.4934
lclavicle 5.76476e-015 1.82882e-014
lhumerus -34.2669 2.68549 81.2769
lradius 22.8232
lwrist -5.53485
lhand -18.8744 -14.3029
lfingers 7.12502
lthumb 7.42634 15.5468
rfemur -21.1495 4.50365 20.6029
rtibia 14.7527
rfoot -24.7641 -6.62378
rtoes -34.0389
lfemur -69.8495 -4.1765 -19.7071
ltibia 60.1698
lfoot -10.2629 -0.951673
ltoes -33.0216
744
root 9.97507 20.4952 -8.9729 -156.758 1.06542 176.714
lowerback -20.9231 -0.381143 -5.1787
upperback 1.89962 0.798872 0.644628
thorax 13.9214 -0.0432951 3.96258
lowerneck -2.472 -0.552047 -1.44956
upperneck 22.6252 -2.68825 0.629374
head 7.35293 -2.04546 0.174749
rclavicle -2.18663e-015 1.43125e-014
rhumerus -32.2946 -12.586 -80.4207
rradius 35.5004
rwrist -4.26188
rhand -10.3379 -51.0724
rfingers 7.12502
rthumb 15.6582 -80.4587
lclavicle -2.18663e-015 1.43125e-014
lhumerus -34.0863 2.76959 81.1258
lradius 23.0142
lwrist -5.56006
lhand -18.6555 -13.7252
lfingers 7.12502
lthumb 7.63769 16.1169
rfemur -21.255 4.50885 20.6438
rtibia 14.7498
rfoot -24.6227 -6.4657
rtoes -33.3297
lfemur -70.0875 -4.33413 -19.6222
ltibia 60.4332
lfoot -10.6137 -1.08947
ltoes -31.5109
745
root 9.96132 20.4936 -9.02003 -156.635 0.906155 176.717
lowerback -20.8842 -0.406854 -5.18321
upperback 1.88572 0.768955 0.607647
thorax 13.886 -0.0535073 3.91235
lowerneck -2.6151 -0.562297 -1.61133
upperneck 22.533 -2.69534 0.854881
head 7.35287 -2.0306 0.275461
rclavicle -3.57812e-015 -1.82882e-014
rhumerus -32.1292 -12.8161 -80.3531
rradius 35.1108
rwrist -3.9187
rhand -9.00529 -52.7046
rfingers 7.12502
rthumb 16.9413 -81.9857
lclavicle -3.57812e-015 -1.82882e-014
lhumerus -33.911 2.60804 81.1619
lradius 23.0139
lwrist -5.42413
lhand -18.5345 -13.5691
lfingers 7.12502
lthumb 7.75449 16.2688
rfemur -21.1333 4.43993 20.6311
rtibia 14.6748
rfoot -24.4431 -6.85549
rtoes -33.2559
lfemur -70.1891 -4.60899 -19.5813
ltibia 60.6445
lfoot -10.773 -1.14082
ltoes -31.6786
746
root 9.95299 20.492 -9.07121 -156.582 0.832498 176.672
lowerback -20.826 -0.416934 -5.33878
upperback 1.91311 0.796064 0.573858
thorax 13.8809 -0.0522698 3.97074
lowerneck -1.90137 -0.655656 -2.07001
upperneck 21.7827 -2.84706 1.45058
head 6.99664 -2.07708 0.553007
rclavicle -3.18055e-015 -5.1684e-015
rhumerus -32.5013 -12.6174 -80.353
rradius 35.5874
rwrist -4.50598
rhand -8.88718 -52.3303
rfingers 7.12502
rthumb 17.055 -81.6017
lclavicle -3.18055e-015 -5.1684e-015
lhumerus -33.8198 2.23118 81.2959
lradius 23.078
lwrist -5.21765
lhand -18.7795 -14.2472
lfingers 7.12502
lthumb 7.518 15.5992
rfemur -20.9547 4.46755 20.5535
rtibia 14.6449
rfoot -24.4286 -7.14887
rtoes -32.8693
lfemur -70.2356 -4.76025 -19.6176
ltibia 60.8857
lfoot -10.8359 -1.09124
ltoes -32.8933
747
root 9.94633 20.4913 -9.12193 -156.469 0.825497 176.547
lowerback -20.7924 -0.468366 -5.59493
upperback 1.96457 0.803736 0.484221
thorax 13.9211 -0.0669009 4.01764
lowerneck -2.62029 -0.750027 -2.05217
upperneck 22.4508 -2.98615 1.26285
head 7.34269 -2.16536 0.46355
rclavicle 4.57205e-015 -1.74931e-014
rhumerus -32.602 -12.5528 -80.4593
rradius 35.8338
rwrist -4.86702
rhand -9.58647 -51.4135
rfingers 7.12502
rthumb 16.3818 -80.7417
lclavicle 4.57205e-015 -1.74931e-014
lhumerus -33.563 2.07871 81.2583
lradius 23.1457
lwrist -5.25774
lhand -18.9338 -14.7873
lfingers 7.12502
lthumb 7.36906 15.0644
rfemur -20.8164 4.54158 20.3643
rtibia 14.4996
rfoot -24.5351 -7.57437
rtoes -33.6922
lfemur -70.3855 -4.90145 -19.7298
ltibia 61.2212
lfoot -10.9737 -1.08549
ltoes -33.4946
748
root 9.93391 20.4939 -9.17298 -156.352 0.774973 176.534
lowerback -20.7076 -0.508873 -5.66246
upperback 1.9501 0.772107 0.412579
thorax 13.8587 -0.0796845 3.96263
lowerneck -2.55745 -0.619521 -1.75595
upperneck 22.5273 -2.78012 0.923644
head 7.34469 -2.07698 0.317198
rclavicle 2.28602e-015 -2.38542e-015
rhumerus -32.6622 -12.5245 -80.5538
rradius 35.8916
rwrist -4.83599
rhand -9.68005 -51.4327
rfingers 7.12502
rthumb 16.2917 -80.7683
lclavicle 2.28602e-015 -2.38542e-015
lhumerus -33.3385 1.98799 81.1752
lradius 23.1307
lwrist -5.39147
lhand -18.7736 -14.3666
lfingers 7.12502
lthumb 7.52366 15.4796
rfemur -20.6098 4.60764 20.3188
rtibia 14.2544
rfoot -24.5043 -8.10146
rtoes -35.0817
lfemur -70.4321 -5.0674 -19.7223
ltibia 61.356
lfoot -11.1314 -1.17213
ltoes -32.3235
749
root 9.91896 20.4988 -9.22745 -156.262 0.676413 176.706
lowerback -20.7082 -0.386231 -5.53793
upperback 1.99572 0.788446 0.37941
thorax 13.9069 -0.11336 3.84671
lowerneck -2.6267 -0.723647 -1.76343
upperneck 22.3202 -2.90374 1.06014
head 7.29285 -2.10906 0.356819
rclavicle -1.0138e-014 -1.23246e-014
rhumerus -32.7439 -12.5623 -80.5801
rradius 36.0169
rwrist -4.66975
rhand -9.32658 -51.7202
rfingers 7.12502
rthumb 16.6321 -81.0276
lclavicle -1.0138e-014 -1.23246e-014
lhumerus -33.1453 1.78889 81.137
lradius 23.2797
lwrist -5.43668
lhand -18.7056 -14.0747
lfingers 7.12502
lthumb 7.5893 15.7691
rfemur -20.4889 4.78988 20.4884
rtibia 14.2741
rfoot -24.372 -8.14813
rtoes -34.4295
lfemur -70.3954 -5.12958 -19.5759
ltibia 61.4114
lfoot -11.2261 -1.40567
ltoes -28.721
750
root 9.90438 20.5018 -9.27875 -156.146 0.64049 176.697
lowerback -20.6605 -0.305086 -5.58818
upperback 1.99125 0.916697 0.295888
thorax 13.8603 -0.0529424 3.82001
lowerneck -2.16394 -0.877552 -1.83176
upperneck 21.7206 -3.09916 1.30084
head 7.0226 -2.17192 0.446478
rclavicle -5.76476e-015 4.37326e-015
rhumerus -33.0285 -12.8411 -80.4446
rradius 36.2614
rwrist -4.33438
rhand -8.77841 -52.111
rfingers 7.12502
rthumb 17.1597 -81.3733
lclavicle -5.76476e-015 4.37326e-015
lhumerus -32.9891 1.50681 81.1557
lradius 23.5178
lwrist -5.41448
lhand -18.7788 -14.1547
lfingers 7.12502
lthumb 7.51863 15.6917
rfemur -20.5175 4.92577 20.4265
rtibia 14.4218
rfoot -24.1973 -8.07217
rtoes -33.2537
lfemur -70.3492 -5.21772 -19.6689
ltibia 61.445
lfoot -11.271 -1.67738
ltoes -25.8243
